<svg xmlns="http://www.w3.org/2000/svg" width="100" height="100" version="1.0" viewBox="0 0 1575 1575" shape-rendering="geometricPrecision" text-rendering="geometricPrecision" image-rendering="optimizeQuality" fill-rule="evenodd" clip-rule="evenodd" aria-hidden="true">
  <path fill="white" class="fil0" d="M79 0h1417c44 0 79 35 79 79 0 43-35 79-79 79H79c-44 0-79-36-79-79C0 35 35 0 79 0zm0 709h1417c44 0 79 35 79 79 0 43-35 78-79 78H79c-44 0-79-35-79-78 0-44 35-79 79-79zm0 709h1417c44 0 79 35 79 78 0 44-35 79-79 79H79c-44 0-79-35-79-79 0-43 35-78 79-78z" />
</svg>
